<?xml version="1.0" encoding="UTF-8"?>
<!DOCTYPE svg PUBLIC "-//W3C//DTD SVG 1.1//EN" "http://www.w3.org/Graphics/SVG/1.1/DTD/svg11.dtd">
<svg xmlns="http://www.w3.org/2000/svg" version="1.1" width="32px" height="32px" style="shape-rendering:geometricPrecision; text-rendering:geometricPrecision; image-rendering:optimizeQuality; fill-rule:evenodd; clip-rule:evenodd" xmlns:xlink="http://www.w3.org/1999/xlink">
<g><path style="opacity:0.79" fill="#09098b" d="M 13.5,5.5 C 13.5,8.16667 13.5,10.8333 13.5,13.5C 10.8333,13.5 8.16667,13.5 5.5,13.5C 4.52333,10.7131 4.19,7.7131 4.5,4.5C 7.7131,4.19 10.7131,4.52333 13.5,5.5 Z"/></g>
<g><path style="opacity:0.953" fill="#020288" d="M 16.5,5.5 C 16.5,9.16667 16.5,12.8333 16.5,16.5C 12.8333,16.5 9.16667,16.5 5.5,16.5C 4.16667,15.8333 4.16667,15.1667 5.5,14.5C 8.5,14.5 11.5,14.5 14.5,14.5C 14.5,11.5 14.5,8.5 14.5,5.5C 15.1667,4.16667 15.8333,4.16667 16.5,5.5 Z"/></g>
<g><path style="opacity:0.801" fill="#0a0a8b" d="M 25.5,13.5 C 22.8333,13.5 20.1667,13.5 17.5,13.5C 17.5,10.8333 17.5,8.16667 17.5,5.5C 20.2869,4.52333 23.2869,4.19 26.5,4.5C 26.81,7.7131 26.4767,10.7131 25.5,13.5 Z"/></g>
<g><path style="opacity:0.777" fill="#aedbf0" d="M 8.5,7.5 C 9.5,7.5 10.5,7.5 11.5,7.5C 11.5,8.83333 11.5,10.1667 11.5,11.5C 10.1667,11.5 8.83333,11.5 7.5,11.5C 7.5,10.5 7.5,9.5 7.5,8.5C 8.16667,8.5 8.5,8.16667 8.5,7.5 Z"/></g>
<g><path style="opacity:0.775" fill="#aedbf0" d="M 22.5,7.5 C 22.5,8.16667 22.8333,8.5 23.5,8.5C 23.5,9.5 23.5,10.5 23.5,11.5C 22.1667,11.5 20.8333,11.5 19.5,11.5C 19.5,10.1667 19.5,8.83333 19.5,7.5C 20.5,7.5 21.5,7.5 22.5,7.5 Z"/></g>
<g><path style="opacity:1" fill="#a2dbf0" d="M 13.5,5.5 C 13.8333,5.5 14.1667,5.5 14.5,5.5C 14.5,8.5 14.5,11.5 14.5,14.5C 11.5,14.5 8.5,14.5 5.5,14.5C 5.5,14.1667 5.5,13.8333 5.5,13.5C 8.16667,13.5 10.8333,13.5 13.5,13.5C 13.5,10.8333 13.5,8.16667 13.5,5.5 Z"/></g>
<g><path style="opacity:0.936" fill="#0d0c8b" d="M 25.5,14.5 C 26.8333,15.1667 26.8333,15.8333 25.5,16.5C 14.8333,15.8333 14.8333,15.1667 25.5,14.5 Z"/></g>
<g><path style="opacity:1" fill="#a4ddf2" d="M 16.5,5.5 C 16.8333,5.5 17.1667,5.5 17.5,5.5C 17.5,8.16667 17.5,10.8333 17.5,13.5C 20.1667,13.5 22.8333,13.5 25.5,13.5C 25.5,13.8333 25.5,14.1667 25.5,14.5C 14.8333,15.1667 14.8333,15.8333 25.5,16.5C 25.5,16.8333 25.5,17.1667 25.5,17.5C 22.8333,17.5 20.1667,17.5 17.5,17.5C 17.5,20.1667 17.5,22.8333 17.5,25.5C 17.1667,25.5 16.8333,25.5 16.5,25.5C 15.8333,14.8333 15.1667,14.8333 14.5,25.5C 14.1667,25.5 13.8333,25.5 13.5,25.5C 13.5,22.8333 13.5,20.1667 13.5,17.5C 10.8333,17.5 8.16667,17.5 5.5,17.5C 5.5,17.1667 5.5,16.8333 5.5,16.5C 9.16667,16.5 12.8333,16.5 16.5,16.5C 16.5,12.8333 16.5,9.16667 16.5,5.5 Z"/></g>
<g><path style="opacity:0.801" fill="#0a0a8b" d="M 5.5,17.5 C 8.16667,17.5 10.8333,17.5 13.5,17.5C 13.5,20.1667 13.5,22.8333 13.5,25.5C 10.7131,26.4767 7.7131,26.81 4.5,26.5C 4.19,23.2869 4.52333,20.2869 5.5,17.5 Z"/></g>
<g><path style="opacity:0.79" fill="#0a0a8b" d="M 25.5,17.5 C 26.4767,20.2869 26.81,23.2869 26.5,26.5C 23.2869,26.81 20.2869,26.4767 17.5,25.5C 17.5,22.8333 17.5,20.1667 17.5,17.5C 20.1667,17.5 22.8333,17.5 25.5,17.5 Z"/></g>
<g><path style="opacity:0.936" fill="#0d0c8b" d="M 16.5,25.5 C 15.8333,26.8333 15.1667,26.8333 14.5,25.5C 15.1667,14.8333 15.8333,14.8333 16.5,25.5 Z"/></g>
<g><path style="opacity:0.775" fill="#aedbf0" d="M 8.5,23.5 C 8.5,22.8333 8.16667,22.5 7.5,22.5C 7.5,21.5 7.5,20.5 7.5,19.5C 8.83333,19.5 10.1667,19.5 11.5,19.5C 11.5,20.8333 11.5,22.1667 11.5,23.5C 10.5,23.5 9.5,23.5 8.5,23.5 Z"/></g>
<g><path style="opacity:0.772" fill="#aedbf0" d="M 23.5,22.5 C 22.8333,22.5 22.5,22.8333 22.5,23.5C 21.5,23.5 20.5,23.5 19.5,23.5C 19.5,22.1667 19.5,20.8333 19.5,19.5C 20.8333,19.5 22.1667,19.5 23.5,19.5C 23.5,20.5 23.5,21.5 23.5,22.5 Z"/></g>
</svg>
